<?xml version="1.0" encoding="utf-8"?>
<!-- Generator: Adobe Illustrator 27.4.1, SVG Export Plug-In . SVG Version: 6.00 Build 0)  -->
<svg version="1.1" id="Layer_1" xmlns="http://www.w3.org/2000/svg" xmlns:xlink="http://www.w3.org/1999/xlink" x="0px" y="0px"
	 viewBox="0 0 360 410" style="enable-background:new 0 0 360 410;" xml:space="preserve">
<style type="text/css">
	.st0{fill:#F90000;}
	.st1{fill:#AEA79F;}
</style>
<g>
	<path class="st0" d="M91.73,60.77c0,15.22-12.34,27.56-27.56,27.56S36.61,75.99,36.61,60.77s12.34-27.56,27.56-27.56
		C79.4,33.21,91.73,45.55,91.73,60.77"/>
	<path class="st1" d="M179.95,350.68c-58.81,0-106.48-46.82-106.48-104.56c0-57.75,47.67-104.57,106.48-104.57
		s106.48,46.81,106.48,104.57C286.42,303.87,238.75,350.68,179.95,350.68 M179.95,32.26L30.71,154.98v227.48h298.47V154.98
		L179.95,32.26z"/>
	<path class="st1" d="M178.97,301.73c-31.75,0-57.57-25.36-57.57-56.54s25.83-56.54,57.57-56.54c31.75,0,57.58,25.36,57.58,56.54
		S210.72,301.73,178.97,301.73 M178.97,164.89c-45.09,0-81.77,36.03-81.77,80.31s36.68,80.3,81.77,80.3s81.78-36.02,81.78-80.3
		C260.75,200.91,224.06,164.89,178.97,164.89"/>
</g>
</svg>
